<svg width="1441" height="2161" viewBox="0 0 1441 2161" fill="none" xmlns="http://www.w3.org/2000/svg">
<path d="M-272.891 1070.75C-272.892 1171.25 -237.501 1472.65 -125.089 1601.78C226.199 1891.97 633.974 1765.44 724.76 1643.97C838.242 1492.13 815.41 1133.54 675.493 1014.06C535.577 894.584 253.648 846.739 90.4525 846.739C-54.163 846.739 -272.889 945.128 -272.891 1070.75Z" fill="url(#paint0_radial_3163_33481)" fill-opacity="0.8"/>
<path d="M688.453 605.923C688.452 723.305 730.276 1075.34 863.123 1226.16C1278.27 1565.11 1760.17 1417.32 1867.46 1275.44C2001.58 1098.1 1974.59 679.263 1809.24 539.711C1643.89 400.16 1310.71 344.277 1117.85 344.277C946.943 344.277 688.455 459.196 688.453 605.923Z" fill="url(#paint1_radial_3163_33481)" fill-opacity="0.8"/>
<path d="M-105.617 469.891C-145.074 620.787 -383.301 1109.87 -231.248 1356.77C288.408 1958.16 1440.65 2100.79 1652.08 1961.22C1916.37 1786.75 1832.6 1077.41 1627.15 832.025C1421.71 586.645 946.811 250.404 652.47 173.442C391.64 105.242 -56.2961 281.27 -105.617 469.891Z" fill="url(#paint2_radial_3163_33481)" fill-opacity="0.8"/>
<defs>
<radialGradient id="paint0_radial_3163_33481" cx="0" cy="0" r="1" gradientUnits="userSpaceOnUse" gradientTransform="translate(261.345 1317.18) rotate(90) scale(470.438 582.929)">
<stop stop-color="#8995AB"/>
<stop offset="1" stop-color="#DCE0E7" stop-opacity="0"/>
</radialGradient>
<radialGradient id="paint1_radial_3163_33481" cx="0" cy="0" r="1" gradientUnits="userSpaceOnUse" gradientTransform="translate(1319.81 893.749) rotate(90) scale(549.471 508.843)">
<stop stop-color="#869E8C"/>
<stop offset="1" stop-color="#DCE2DD" stop-opacity="0"/>
</radialGradient>
<radialGradient id="paint2_radial_3163_33481" cx="0" cy="0" r="1" gradientUnits="userSpaceOnUse" gradientTransform="translate(761.19 1091.84) rotate(104.653) scale(730.104 1023.14)">
<stop stop-color="#C9DDB4"/>
<stop offset="1" stop-color="#E0EBD4" stop-opacity="0"/>
</radialGradient>
</defs>
</svg>
