<svg width="17" height="16" viewBox="0 0 17 16" fill="none" xmlns="http://www.w3.org/2000/svg">
<path d="M14.5 6.66406C14.5 11.3307 8.5 15.3307 8.5 15.3307C8.5 15.3307 2.5 11.3307 2.5 6.66406C2.5 5.07276 3.13214 3.54664 4.25736 2.42142C5.38258 1.2962 6.9087 0.664062 8.5 0.664062C10.0913 0.664063 11.6174 1.2962 12.7426 2.42142C13.8679 3.54664 14.5 5.07276 14.5 6.66406Z" stroke="white" stroke-linecap="round" stroke-linejoin="round"/>
<path d="M8.5 8.66406C9.60457 8.66406 10.5 7.76863 10.5 6.66406C10.5 5.55949 9.60457 4.66406 8.5 4.66406C7.39543 4.66406 6.5 5.55949 6.5 6.66406C6.5 7.76863 7.39543 8.66406 8.5 8.66406Z" stroke="white" stroke-linecap="round" stroke-linejoin="round"/>
</svg>
